<svg xmlns="http://www.w3.org/2000/svg" viewBox="0 0 600 600">
  <defs>
    <style>
      .navy { fill: #0a2a4a; }
      .navy-stroke { fill: none; stroke: #0a2a4a; stroke-width: 5; stroke-linecap: round; stroke-linejoin: round; }
      .gold { fill: #c89f38; }
      .teal { fill: #2e8b8b; }
      .font-script { font-family: 'Brush Script MT', cursive; font-size: 90px; }
      .font-sans { font-family: sans-serif; font-size: 35px; font-weight: bold; }
    </style>
  </defs>

  <circle cx="300" cy="300" r="250" class="navy-stroke" stroke-width="8" />
  
  <path d="M120,200 A200,200 0 0,1 480,200" class="navy-stroke" stroke="#c89f38" stroke-width="4" />
  <path d="M140,400 A200,200 0 0,0 460,400" class="navy-stroke" stroke="#2e8b8b" stroke-width="4" />

  <path d="M100,300 A200,200 0 0,1 120,180 M105,290 L125,290 M105,270 L125,270 M105,250 L125,250 M108,230 L128,230 M112,210 L132,210 M118,190 L138,190" class="navy-stroke" />
  <path d="M500,300 A200,200 0 0,0 480,180 M495,290 L475,290 M495,270 L475,270 M495,250 L475,250 M492,230 L472,230 M488,210 L468,210 M482,190 L462,190" class="navy-stroke" />

  <g transform="translate(300, 250)">
    <ellipse cx="-60" cy="-70" rx="30" ry="45" class="gold" stroke="#0a2a4a" stroke-width="4"/>
    <ellipse cx="60" cy="-70" rx="30" ry="45" class="gold" stroke="#0a2a4a" stroke-width="4"/>
    <ellipse cx="-100" cy="10" rx="30" ry="40" class="teal" stroke="#0a2a4a" stroke-width="4" transform="rotate(-30)"/>
    <ellipse cx="100" cy="10" rx="30" ry="40" class="teal" stroke="#0a2a4a" stroke-width="4" transform="rotate(30)"/>
    
    <path d="M-80,60 Q-100,0 0,-30 Q100,0 80,60 Q70,110 0,130 Q-70,110 -80,60 Z" class="gold" stroke="#0a2a4a" stroke-width="4"/>
    <path d="M0,-30 Q100,0 80,60 Q70,110 0,130 V-30 Z" class="teal" />

    <g transform="translate(0, 80)">
      <path d="M0,0 L-40,-20 L-40,20 Z" class="teal" stroke="#0a2a4a" stroke-width="3"/>
      <path d="M0,0 L40,-20 L40,20 Z" class="teal" stroke="#0a2a4a" stroke-width="3"/>
      <circle cx="0" cy="0" r="10" class="teal" stroke="#0a2a4a" stroke-width="3"/>
    </g>
  </g>

  <g transform="translate(220, 120) rotate(-20)">
    <rect x="-40" y="-50" width="80" height="60" class="navy"/>
    <rect x="-40" y="10" width="80" height="15" class="gold"/>
    <rect x="-60" y="25" width="120" height="10" class="navy"/>
  </g>

  <g transform="translate(450, 350) rotate(-45)">
    <circle cx="-15" cy="0" r="15" class="navy-stroke"/>
    <circle cx="15" cy="0" r="15" class="navy-stroke"/>
    <line x1="-5" y1="-15" x2="40" y2="-60" class="navy-stroke"/>
    <line x1="5" y1="-15" x2="-40" y2="-60" class="navy-stroke"/>
  </g>

  <text x="300" y="480" class="navy font-script" text-anchor="middle">Snazzy Paws</text>
  <text x="300" y="530" class="navy font-sans" text-anchor="middle">Grooming</text>
</svg>